<?xml version="1.0" encoding="UTF-8"?>
<svg width="500px" height="500px" viewBox="0 0 500 500" version="1.1" xmlns="http://www.w3.org/2000/svg" xmlns:xlink="http://www.w3.org/1999/xlink">
    <!-- Generator: Sketch 50.2 (55047) - http://www.bohemiancoding.com/sketch -->
    <title>clear-night-alt</title>
    <desc>Created with Sketch.</desc>
    <defs>
        <radialGradient cx="51.7490208%" cy="50%" fx="51.7490208%" fy="50%" r="98.9676339%" id="radialGradient-1">
            <stop stop-color="#BFBFBF" offset="0%"></stop>
            <stop stop-color="#B4B4B4" offset="100%"></stop>
        </radialGradient>
    </defs>
    <g id="clear-night-alt" stroke="none" stroke-width="1" fill="none" fill-rule="evenodd">
        <circle id="Moon" fill="url(#radialGradient-1)" cx="250" cy="250" r="225"></circle>
        <path d="M124.962447,358.299926 C85.6456449,352.414785 51.9556339,319.278295 44.052016,274.45465 C34.3657887,219.521326 67.0775874,167.836533 117.115863,159.013435 C122.345263,158.091351 127.556947,157.67389 132.70856,157.728352 C131.521229,139.241569 136.750558,119.478298 148.826054,102.232703 C174.643421,65.3616807 221.978307,53.9613335 254.55148,76.7693148 C287.124653,99.5772961 292.601316,147.956688 266.783948,184.82771 C254.347226,202.58919 236.91729,214.440113 218.5496,219.403744 C221.550463,226.659152 223.825999,234.389804 225.256643,242.503386 C230.503409,272.259274 223.310194,301.062012 207.661667,322.615805 C213.967771,326.092499 219.993858,330.580575 225.467766,336.054484 C251.632894,362.219611 255.273592,401.000966 233.599494,422.675064 C211.925396,444.349162 173.144041,440.708464 146.978913,414.543336 C130.724614,398.289036 123.162812,377.165954 124.962465,358.299929 Z M296,262 C279.983742,262 267,249.463973 267,234 C267,218.536027 279.983742,206 296,206 C312.016258,206 325,218.536027 325,234 C325,249.463973 312.016258,262 296,262 Z M399.610077,188.987467 C379.087938,198.557097 352.328581,184.606237 339.841381,157.827349 C327.35418,131.04846 333.867784,101.582164 354.389923,92.0125334 C374.912062,82.4429029 401.671419,96.3937629 414.158619,123.172651 C426.64582,149.95154 420.132216,179.417836 399.610077,188.987467 Z M372.5,360 C346.266474,360 325,339.405098 325,314 C325,288.594902 346.266474,268 372.5,268 C398.733526,268 420,288.594902 420,314 C420,339.405098 398.733526,360 372.5,360 Z" id="Spots" fill-opacity="0.5" fill="#828181"></path>
    </g>
</svg>