<?xml version="1.0" encoding="UTF-8"?>
<svg width="500px" height="500px" viewBox="0 0 500 500" version="1.1" xmlns="http://www.w3.org/2000/svg" xmlns:xlink="http://www.w3.org/1999/xlink">
    <!-- Generator: Sketch 50.2 (55047) - http://www.bohemiancoding.com/sketch -->
    <title>cloudy-partial-moon</title>
    <desc>Created with Sketch.</desc>
    <defs>
        <radialGradient cx="51.7490208%" cy="50%" fx="51.7490208%" fy="50%" r="117.650687%" gradientTransform="translate(0.517490,0.500000),scale(1.000000,0.841199),rotate(90.000000),translate(-0.517490,-0.500000)" id="radialGradient-1">
            <stop stop-color="#BFBFBF" offset="0%"></stop>
            <stop stop-color="#B4B4B4" offset="100%"></stop>
        </radialGradient>
    </defs>
    <g id="cloudy-partial-moon" stroke="none" stroke-width="1" fill="none" fill-rule="evenodd">
        <path d="M400.447017,24.8926356 C354.837202,43.1292402 322.511961,88.6945182 322.511961,142.019315 C322.511961,211.404314 377.240582,267.651969 444.751757,267.651969 C445.480437,267.651969 446.207628,267.645416 446.933277,267.632364 C421.532051,289.006986 388.518145,301.920778 352.430098,301.920778 C272.217078,301.920778 207.191577,238.121355 207.191577,159.420778 C207.191577,80.7202012 272.217078,16.920778 352.430098,16.920778 C369.257505,16.920778 385.416521,19.7285475 400.447017,24.8926356 Z" id="Moon" fill="url(#radialGradient-1)" transform="translate(327.062427, 159.420778) rotate(-34.000000) translate(-327.062427, -159.420778) "></path>
        <path d="M87.8707034,432.801634 L88.1665669,432.794185 L88.4612432,432.821691 C88.6182633,432.836347 88.7770806,432.843749 88.9375317,432.843749 L413.268275,432.843749 C413.620274,432.843749 413.964554,432.808148 414.299045,432.738433 L414.772127,432.639833 L415.255335,432.633658 C459.432178,432.069138 495,396.0313 495,351.746476 C495,307.068756 458.82414,270.852565 414.201742,270.852565 C407.380685,270.852565 400.675083,271.697715 394.191051,273.351413 L390.63329,274.25879 L388.70253,271.135784 C374.893743,248.800053 347.509371,234.407859 317.01848,234.407859 C307.18093,234.407859 297.592784,235.893207 288.586232,238.755717 L284.089857,240.184778 L282.402473,235.778834 C268.829644,200.338687 231.821381,176 189.608675,176 C135.282048,176 91.4219692,215.917251 91.4219692,264.910676 C91.4219692,265.266476 91.4242753,265.622018 91.4288841,265.97729 L91.495064,271.078808 L86.3932491,271.042018 C86.1950082,271.040588 85.9966772,271.039873 85.7982585,271.039873 C41.1758604,271.039873 5,307.256064 5,351.933784 C5,396.611503 41.1758604,432.827694 85.7982585,432.827694 C86.4901834,432.827694 87.1810318,432.818998 87.8707034,432.801634 Z" id="Cloud" stroke="#FFFFFF" stroke-width="10" fill="#CCCCCC"></path>
    </g>
</svg>