<?xml version="1.0" encoding="UTF-8"?>
<svg width="500px" height="500px" viewBox="0 0 500 500" version="1.1" xmlns="http://www.w3.org/2000/svg" xmlns:xlink="http://www.w3.org/1999/xlink">
    <!-- Generator: Sketch 50.2 (55047) - http://www.bohemiancoding.com/sketch -->
    <title>cloudy</title>
    <desc>Created with Sketch.</desc>
    <defs></defs>
    <g id="cloudy" stroke="none" stroke-width="1" fill="none" fill-rule="evenodd">
        <path d="M298.559968,250.443483 C297.10561,250.593549 295.629577,250.670451 294.135602,250.670451 C270.581352,250.670451 251.48686,231.554672 251.48686,207.974163 C251.48686,184.393654 270.581352,165.277875 294.135602,165.277875 C294.240251,165.277875 294.344812,165.278252 294.449283,165.279005 C294.446855,165.09179 294.445637,164.90431 294.445637,164.716571 C294.445637,138.935215 317.409946,118.035296 345.737856,118.035296 C368.149,118.035296 387.203111,131.116374 394.184968,149.346767 C398.819411,147.873824 403.834985,147.068772 409.070935,147.068772 C425.450056,147.068772 439.672656,154.946736 446.817784,166.503991 C450.195193,165.642611 453.733665,165.184768 457.378953,165.184768 C480.933202,165.184768 500.027694,184.300547 500.027694,207.881056 C500.027694,231.461565 480.933202,250.577344 457.378953,250.577344 C456.251782,250.577344 455.134824,250.533569 454.029682,250.447623 C453.337917,250.598788 452.619381,250.678432 451.882225,250.678432 L300.728795,250.678432 C299.983745,250.678432 299.258042,250.597327 298.559968,250.443483 Z" id="Cloud" stroke="#FFFFFF" stroke-width="15" fill="#CCCCCC"></path>
        <path d="M50.0599682,205.086618 C48.6056104,205.236685 47.1295768,205.313587 45.6356016,205.313587 C22.0813521,205.313587 2.9868602,186.197808 2.9868602,162.617299 C2.9868602,139.03679 22.0813521,119.921011 45.6356016,119.921011 C45.7402506,119.921011 45.8448116,119.921388 45.9492832,119.922141 C45.9468545,119.734926 45.9456368,119.547446 45.9456368,119.359707 C45.9456368,93.5783509 68.9099458,72.6784321 97.2378565,72.6784321 C119.649,72.6784321 138.703111,85.7595102 145.684968,103.989903 C150.319411,102.51696 155.334985,101.711908 160.570935,101.711908 C176.950056,101.711908 191.172656,109.589872 198.317784,121.147127 C201.695193,120.285747 205.233665,119.827903 208.878953,119.827903 C232.433202,119.827903 251.527694,138.943683 251.527694,162.524192 C251.527694,186.104701 232.433202,205.22048 208.878953,205.22048 C207.751782,205.22048 206.634824,205.176704 205.529682,205.090759 C204.837917,205.241924 204.119381,205.321568 203.382225,205.321568 L52.2287948,205.321568 C51.4837453,205.321568 50.7580415,205.240463 50.0599682,205.086618 Z" id="Cloud-4" stroke="#FFFFFF" stroke-width="15" fill="#CCCCCC"></path>
        <path d="M145.764903,316.866145 C144.514573,316.947816 143.253291,316.98929 141.982332,316.98929 C110.373788,316.98929 84.75,291.336936 84.75,259.693153 C84.75,228.04937 110.373788,202.397016 141.982332,202.397016 C142.122765,202.397016 142.26308,202.397522 142.403276,202.398533 C142.400017,202.147301 142.398383,201.895712 142.398383,201.643777 C142.398383,167.046574 173.215258,139 211.2298,139 C241.304357,139 266.873957,156.554108 276.243235,181.018321 C282.46241,179.04171 289.193043,177.961373 296.219407,177.961373 C318.199313,177.961373 337.285281,188.53318 346.873662,204.042398 C351.405964,202.886472 356.154404,202.272071 361.046185,202.272071 C392.65473,202.272071 418.278517,227.924425 418.278517,259.568208 C418.278517,291.211991 392.65473,316.864346 361.046185,316.864346 C360.347526,316.864346 359.65179,316.851813 358.959191,316.826959 C358.355969,316.940572 357.733621,317 357.097395,317 L147.402521,317 C146.84494,317 146.297875,316.954198 145.764903,316.866145 Z" id="Cloud-2" stroke="#FFFFFF" stroke-width="15" fill="#CCCCCC"></path>
        <path d="M50.0599682,379.408186 C48.6056104,379.558253 47.1295768,379.635155 45.6356016,379.635155 C22.0813521,379.635155 2.9868602,360.519376 2.9868602,336.938867 C2.9868602,313.358358 22.0813521,294.242579 45.6356016,294.242579 C45.7402506,294.242579 45.8448116,294.242956 45.9492832,294.243709 C45.9468545,294.056494 45.9456368,293.869014 45.9456368,293.681275 C45.9456368,267.899919 68.9099458,247 97.2378565,247 C119.649,247 138.703111,260.081078 145.684968,278.311471 C150.319411,276.838528 155.334985,276.033476 160.570935,276.033476 C176.950056,276.033476 191.172656,283.91144 198.317784,295.468695 C201.695193,294.607315 205.233665,294.149471 208.878953,294.149471 C232.433202,294.149471 251.527694,313.265251 251.527694,336.84576 C251.527694,360.426269 232.433202,379.542048 208.878953,379.542048 C207.751782,379.542048 206.634824,379.498272 205.529682,379.412327 C204.837917,379.563492 204.119381,379.643136 203.382225,379.643136 L52.2287948,379.643136 C51.4837453,379.643136 50.7580415,379.562031 50.0599682,379.408186 Z" id="Cloud-3" stroke="#FFFFFF" stroke-width="15" fill="#CCCCCC"></path>
    </g>
</svg>