<?xml version="1.0" encoding="UTF-8"?>
<svg width="500px" height="500px" viewBox="0 0 500 500" version="1.1" xmlns="http://www.w3.org/2000/svg" xmlns:xlink="http://www.w3.org/1999/xlink">
    <!-- Generator: Sketch 50.2 (55047) - http://www.bohemiancoding.com/sketch -->
    <title>heavy-rain</title>
    <desc>Created with Sketch.</desc>
    <defs></defs>
    <g id="heavy-rain" stroke="none" stroke-width="1" fill="none" fill-rule="evenodd">
        <g id="rain" transform="translate(25.000000, -1.000000)">
            <g id="umbrella" transform="translate(0.000000, 293.000000)" stroke="#404040">
                <path d="M162,122 C162,122 161.999999,154.702885 161.999999,180.866296 C161.999999,207.029707 123,208.037445 123,181.87404 C123,155.710636 123,167.361963 123,167.361963" id="Handle" stroke-width="23" transform="translate(142.500000, 161.500000) rotate(-50.000000) translate(-142.500000, -161.500000) "></path>
                <path d="M54.3458454,84.8293264 L44.6586392,51.8650882 L77.1499997,12.4179288 L77.2185135,12.3362375 L98.7229209,-12.8463368 L132.733758,128.49328 L-12.222524,119.465464 L18.4672282,82.8163046 L54.3458454,84.8293264 Z" id="Triangle-1" stroke-width="12" fill="#F5E000"></path>
            </g>
            <g id="Drops" transform="translate(279.000000, 260.000000) scale(1, -1) translate(-279.000000, -260.000000) translate(142.000000, 210.000000)" fill="#4580CB">
                <g id="Rain-Drop---Large" transform="translate(28.500000, 62.500000) scale(1, -1) rotate(20.000000) translate(-28.500000, -62.500000) translate(11.000000, 30.000000)">
                    <rect id="rain-drop" x="0" y="0" width="35" height="65" rx="17.5"></rect>
                </g>
                <g id="Rain-Drop---Large" transform="translate(136.500000, 37.500000) scale(1, -1) rotate(20.000000) translate(-136.500000, -37.500000) translate(119.000000, 5.000000)">
                    <rect id="rain-drop" x="0" y="0" width="35" height="65" rx="17.5"></rect>
                </g>
                <g id="Rain-Drop---Large" transform="translate(245.500000, 62.500000) scale(1, -1) rotate(20.000000) translate(-245.500000, -62.500000) translate(228.000000, 30.000000)">
                    <rect id="rain-drop" x="0" y="0" width="35" height="65" rx="17.5"></rect>
                </g>
            </g>
            <path d="M163.326798,197.709616 L163.804565,197.685229 L164.278288,197.751879 C164.511072,197.78463 164.748156,197.801249 164.988951,197.801249 L406.687462,197.801249 C407.000393,197.801249 407.30721,197.773057 407.606515,197.717724 L408.104915,197.625583 L408.611667,197.635334 C409.005054,197.642904 409.398951,197.646694 409.793324,197.646694 C443.043305,197.646694 470,170.659946 470,137.367322 C470,104.074697 443.043305,77.0879496 409.793324,77.0879496 C404.709547,77.0879496 399.712906,77.7177079 394.881756,78.9498525 L391.323994,79.8572298 L389.393235,76.7342237 C379.123364,60.1226934 358.701959,49.389973 335.934045,49.389973 C328.580773,49.389973 321.416383,50.4998442 314.68901,52.6379733 L310.192635,54.0670351 L308.505251,49.661091 C298.371362,23.2003938 270.696699,5 239.102593,5 C198.453192,5 165.680697,34.826393 165.680697,71.3721135 C165.680697,71.6373327 165.682416,71.9023558 165.685851,72.1671748 L165.752031,77.268693 L160.650216,77.2319021 C160.502437,77.2308365 160.35459,77.2303034 160.206676,77.2303034 C126.956695,77.2303034 100,104.217051 100,137.509675 C100,170.8023 126.956695,197.789048 160.206676,197.789048 C161.250311,197.789048 162.290559,197.762509 163.326798,197.709616 Z" id="Cloud" stroke="#FFFFFF" stroke-width="10" fill="#CCCCCC"></path>
        </g>
    </g>
</svg>