<?xml version="1.0" encoding="UTF-8"?>
<svg width="500px" height="500px" viewBox="0 0 500 500" version="1.1" xmlns="http://www.w3.org/2000/svg" xmlns:xlink="http://www.w3.org/1999/xlink">
    <!-- Generator: Sketch 50.2 (55047) - http://www.bohemiancoding.com/sketch -->
    <title>heavy-snow</title>
    <desc>Created with Sketch.</desc>
    <defs></defs>
    <g id="heavy-snow" stroke="none" stroke-width="1" fill="none" fill-rule="evenodd">
        <path d="M99.0329896,244.947901 L99.371445,244.937352 L99.7082322,244.972534 C99.8828774,244.990778 100.059731,245 100.238558,245 L401.898742,245 C402.233743,245 402.561787,244.967702 402.881125,244.904388 L403.349755,244.811475 L403.827501,244.808989 C445.161223,244.593878 478.576738,210.977033 478.576738,169.571933 C478.576738,128.017834 444.930253,94.3338377 403.427997,94.3338377 C397.083581,94.3338377 390.846851,95.1198924 384.816304,96.657933 L381.258543,97.5653103 L379.327783,94.4423042 C366.489935,73.6770675 341.015926,60.2888889 312.643915,60.2888889 C303.487953,60.2888889 294.56479,61.6712204 286.183555,64.3349889 L281.687179,65.7640507 L279.999796,61.3581066 C267.370476,28.3815659 232.922984,5.72698413 193.623603,5.72698413 C143.049467,5.72698413 102.231383,42.8757021 102.231383,88.4539683 C102.231383,88.7849165 102.233528,89.1156236 102.237815,89.4460793 L102.303995,94.5475975 L97.2021799,94.5108067 C97.0177837,94.5094769 96.8333035,94.5088117 96.6487414,94.5088117 C55.1464855,94.5088117 21.5,128.192808 21.5,169.746907 C21.5,211.301006 55.1464855,244.985002 96.6487414,244.985002 C97.4450937,244.985002 98.239902,244.972618 99.0329896,244.947901 Z" id="Cloud" stroke="#FFFFFF" stroke-width="10" fill="#CCCCCC"></path>
        <g id="Snow-Group---Heavy" transform="translate(69.000000, 260.000000)" fill="#828181" fill-opacity="0.65">
            <circle id="Oval-86" cx="20" cy="20" r="20"></circle>
            <circle id="Oval-88" cx="20" cy="114" r="20"></circle>
            <circle id="Oval-90" cx="20" cy="209" r="20"></circle>
            <circle id="Oval-91" cx="81" cy="67" r="20"></circle>
            <circle id="Oval-93" cx="81" cy="162" r="20"></circle>
        </g>
        <g id="Snow-Group---Heavy" transform="translate(200.000000, 260.000000)" fill="#828181" fill-opacity="0.65">
            <circle id="Oval-86" cx="20" cy="20" r="20"></circle>
            <circle id="Oval-88" cx="20" cy="114" r="20"></circle>
            <circle id="Oval-90" cx="20" cy="209" r="20"></circle>
            <circle id="Oval-91" cx="81" cy="67" r="20"></circle>
            <circle id="Oval-93" cx="81" cy="162" r="20"></circle>
        </g>
        <g id="Snow-Group---Heavy" transform="translate(331.000000, 261.000000)" fill="#828181" fill-opacity="0.65">
            <circle id="Oval-86" cx="20" cy="20" r="20"></circle>
            <circle id="Oval-88" cx="20" cy="114" r="20"></circle>
            <circle id="Oval-90" cx="20" cy="209" r="20"></circle>
            <circle id="Oval-91" cx="81" cy="67" r="20"></circle>
            <circle id="Oval-93" cx="81" cy="162" r="20"></circle>
        </g>
    </g>
</svg>