<?xml version="1.0" encoding="UTF-8"?>
<svg width="500px" height="500px" viewBox="0 0 500 500" version="1.1" xmlns="http://www.w3.org/2000/svg" xmlns:xlink="http://www.w3.org/1999/xlink">
    <!-- Generator: Sketch 50.2 (55047) - http://www.bohemiancoding.com/sketch -->
    <title>partly-cloudy-day</title>
    <desc>Created with Sketch.</desc>
    <defs>
        <radialGradient cx="51.7490208%" cy="50%" fx="51.7490208%" fy="50%" r="100.111485%" gradientTransform="translate(0.517490,0.500000),scale(1.000000,0.998886),rotate(90.000000),translate(-0.517490,-0.500000)" id="radialGradient-1">
            <stop stop-color="#FFEB00" offset="0%"></stop>
            <stop stop-color="#F8E71C" offset="100%"></stop>
        </radialGradient>
    </defs>
    <g id="partly-cloudy-day" stroke="none" stroke-width="1" fill="none" fill-rule="evenodd">
        <g id="Sun-+-Cloud" transform="translate(17.000000, 82.000000)">
            <ellipse id="Sun" fill="url(#radialGradient-1)" cx="278.383295" cy="168.5" rx="168.312357" ry="168.5"></ellipse>
            <path d="M82.5329896,331.947901 L82.871445,331.937352 L83.2082322,331.972534 C83.3828774,331.990778 83.5597313,332 83.7385576,332 L385.398742,332 C385.733743,332 386.061787,331.967702 386.381125,331.904388 L386.849755,331.811475 L387.327501,331.808989 C428.661223,331.593878 462.076738,297.977033 462.076738,256.571933 C462.076738,215.017834 428.430253,181.333838 386.927997,181.333838 C380.583581,181.333838 374.346851,182.119892 368.316304,183.657933 L364.758543,184.56531 L362.827783,181.442304 C349.989935,160.677067 324.515926,147.288889 296.143915,147.288889 C286.987953,147.288889 278.06479,148.67122 269.683555,151.334989 L265.187179,152.764051 L263.499796,148.358107 C250.870476,115.381566 216.422984,92.7269841 177.123603,92.7269841 C126.549467,92.7269841 85.731383,129.875702 85.731383,175.453968 C85.731383,175.784917 85.733528,176.115624 85.7378149,176.446079 L85.8039947,181.547598 L80.7021799,181.510807 C80.5177837,181.509477 80.3333035,181.508812 80.1487414,181.508812 C38.6464855,181.508812 5,215.192808 5,256.746907 C5,298.301006 38.6464855,331.985002 80.1487414,331.985002 C80.9450937,331.985002 81.739902,331.972618 82.5329896,331.947901 Z" id="Cloud" stroke="#FFFFFF" stroke-width="10" fill="#CCCCCC"></path>
        </g>
    </g>
</svg>