<?xml version="1.0" encoding="UTF-8"?>
<svg width="500px" height="500px" viewBox="0 0 500 500" version="1.1" xmlns="http://www.w3.org/2000/svg" xmlns:xlink="http://www.w3.org/1999/xlink">
    <!-- Generator: Sketch 50.2 (55047) - http://www.bohemiancoding.com/sketch -->
    <title>partly-cloudy-night</title>
    <desc>Created with Sketch.</desc>
    <defs>
        <radialGradient cx="51.7490208%" cy="50%" fx="51.7490208%" fy="50%" r="98.9676339%" id="radialGradient-1">
            <stop stop-color="#BFBFBF" offset="0%"></stop>
            <stop stop-color="#B4B4B4" offset="100%"></stop>
        </radialGradient>
    </defs>
    <g id="partly-cloudy-night" stroke="none" stroke-width="1" fill="none" fill-rule="evenodd">
        <circle id="Moon" fill="url(#radialGradient-1)" cx="298.179872" cy="250.406852" r="180.406852"></circle>
        <path d="M87.8851632,425.771582 L88.1810266,425.764133 L88.4757029,425.791639 C88.6327742,425.8063 88.7916431,425.813704 88.952146,425.813704 L413.336183,425.813704 C413.688297,425.813704 414.03269,425.778091 414.367291,425.708354 L414.840373,425.609754 L415.323581,425.603579 C459.508133,425.03896 495.082161,388.994834 495.082161,344.702284 C495.082161,300.016769 458.899988,263.794259 414.269804,263.794259 C407.447558,263.794259 400.740786,264.639556 394.255622,266.293543 L390.697861,267.20092 L388.767101,264.077914 C374.955891,241.738263 347.566751,227.343564 317.070573,227.343564 C307.231322,227.343564 297.641517,228.829168 288.633404,231.692175 L284.137029,233.121236 L282.449645,228.715292 C268.874461,193.268997 231.859808,168.926107 189.639832,168.926107 C135.30384,168.926107 91.4361702,208.850267 91.4361702,257.852214 C91.4361702,258.208076 91.4384767,258.56368 91.4430863,258.919015 L91.5092661,264.020533 L86.4074513,263.983742 C86.2091758,263.982312 86.0108102,263.981597 85.812357,263.981597 C41.1821725,263.981597 5,300.204107 5,344.889622 C5,389.575137 41.1821725,425.797647 85.812357,425.797647 C86.5044025,425.797647 87.1953713,425.788949 87.8851632,425.771582 Z" id="Cloud" stroke="#FFFFFF" stroke-width="10" fill="#CCCCCC"></path>
    </g>
</svg>