<?xml version="1.0" encoding="UTF-8"?>
<svg width="500px" height="500px" viewBox="0 0 500 500" version="1.1" xmlns="http://www.w3.org/2000/svg" xmlns:xlink="http://www.w3.org/1999/xlink">
    <!-- Generator: Sketch 50.2 (55047) - http://www.bohemiancoding.com/sketch -->
    <title>partly-cloudy-night-alt</title>
    <desc>Created with Sketch.</desc>
    <defs>
        <radialGradient cx="51.7490208%" cy="50%" fx="51.7490208%" fy="50%" r="99.6075109%" gradientTransform="translate(0.517490,0.500000),scale(1.000000,0.993576),rotate(90.000000),translate(-0.517490,-0.500000)" id="radialGradient-1">
            <stop stop-color="#BFBFBF" offset="0%"></stop>
            <stop stop-color="#B4B4B4" offset="100%"></stop>
        </radialGradient>
    </defs>
    <g id="partly-cloudy-night-alt" stroke="none" stroke-width="1" fill="none" fill-rule="evenodd">
        <g id="Full-Moon" transform="translate(118.000000, 76.000000)">
            <ellipse id="Moon-2" fill="url(#radialGradient-1)" cx="183.633833" cy="174.5" rx="162.366167" ry="163.415948"></ellipse>
            <ellipse id="Oval-14" fill-opacity="0.5" fill="#828181" cx="216.828694" cy="162.87931" rx="20.9271949" ry="20.3362069"></ellipse>
            <ellipse id="Oval-15" fill-opacity="0.5" fill="#828181" transform="translate(275.280514, 94.970905) rotate(-25.000000) translate(-275.280514, -94.970905) " cx="275.280514" cy="94.9709052" rx="29.5867238" ry="38.856681"></ellipse>
            <ellipse id="Oval-16" fill-opacity="0.5" fill="#828181" cx="272.033191" cy="220.982759" rx="34.2773019" ry="33.4094828"></ellipse>
            <path d="M71.3724225,237.896215 C44.2494565,228.673916 24.5353319,200.767612 24.5353319,167.773707 C24.5353319,127.260526 54.2590227,94.4181034 90.9250535,94.4181034 C94.702202,94.4181034 98.4056779,94.7666297 102.010576,95.4361645 C103.571629,82.1690936 109.818904,68.7985817 120.575505,58.0419803 C143.691766,34.9257197 178.879929,32.6350192 199.170468,52.9255575 C219.461006,73.2160959 217.170305,108.404259 194.054045,131.52052 C182.957332,142.617233 169.078797,148.914951 155.401787,150.219464 C156.651817,155.843889 157.314775,161.723254 157.314775,167.773707 C157.314775,189.774497 148.549075,209.513133 134.666099,222.958383 C138.748486,226.253097 142.504774,230.238905 145.741992,234.862131 C161.156905,256.876908 158.964831,285.008291 140.845858,297.695332 C122.726886,310.382373 95.5422999,302.820749 80.127387,280.805972 C70.5587627,267.140561 67.7743891,251.118324 71.3724225,237.896215 Z" id="Oval-9" fill-opacity="0.5" fill="#828181" transform="translate(130.253747, 168.500000) rotate(-10.000000) translate(-130.253747, -168.500000) "></path>
        </g>
        <path d="M99.5329896,413.947901 L99.871445,413.937352 L100.208232,413.972534 C100.382877,413.990778 100.559731,414 100.738558,414 L402.398742,414 C402.733743,414 403.061787,413.967702 403.381125,413.904388 L403.849755,413.811475 L404.327501,413.808989 C445.661223,413.593878 479.076738,379.977033 479.076738,338.571933 C479.076738,297.017834 445.430253,263.333838 403.927997,263.333838 C397.583581,263.333838 391.346851,264.119892 385.316304,265.657933 L381.758543,266.56531 L379.827783,263.442304 C366.989935,242.677067 341.515926,229.288889 313.143915,229.288889 C303.987953,229.288889 295.06479,230.67122 286.683555,233.334989 L282.187179,234.764051 L280.499796,230.358107 C267.870476,197.381566 233.422984,174.726984 194.123603,174.726984 C143.549467,174.726984 102.731383,211.875702 102.731383,257.453968 C102.731383,257.784917 102.733528,258.115624 102.737815,258.446079 L102.803995,263.547598 L97.7021799,263.510807 C97.5177837,263.509477 97.3333035,263.508812 97.1487414,263.508812 C55.6464855,263.508812 22,297.192808 22,338.746907 C22,380.301006 55.6464855,413.985002 97.1487414,413.985002 C97.9450937,413.985002 98.739902,413.972618 99.5329896,413.947901 Z" id="Cloud" stroke="#FFFFFF" stroke-width="10" fill="#CCCCCC"></path>
    </g>
</svg>