<?xml version="1.0" encoding="UTF-8"?>
<svg width="500px" height="500px" viewBox="0 0 500 500" version="1.1" xmlns="http://www.w3.org/2000/svg" xmlns:xlink="http://www.w3.org/1999/xlink">
    <!-- Generator: Sketch 50.2 (55047) - http://www.bohemiancoding.com/sketch -->
    <title>partly-cloudy-night</title>
    <desc>Created with Sketch.</desc>
    <defs>
        <radialGradient cx="51.7490208%" cy="50%" fx="51.7490208%" fy="50%" r="98.9676339%" id="radialGradient-1">
            <stop stop-color="#BFBFBF" offset="0%"></stop>
            <stop stop-color="#B4B4B4" offset="100%"></stop>
        </radialGradient>
    </defs>
    <g id="partly-cloudy-night" stroke="none" stroke-width="1" fill="none" fill-rule="evenodd">
        <circle id="Moon" fill="url(#radialGradient-1)" cx="295.5" cy="250.5" r="168.5"></circle>
        <path d="M99.5329896,413.947901 L99.871445,413.937352 L100.208232,413.972534 C100.382877,413.990778 100.559731,414 100.738558,414 L402.398742,414 C402.733743,414 403.061787,413.967702 403.381125,413.904388 L403.849755,413.811475 L404.327501,413.808989 C445.661223,413.593878 479.076738,379.977033 479.076738,338.571933 C479.076738,297.017834 445.430253,263.333838 403.927997,263.333838 C397.583581,263.333838 391.346851,264.119892 385.316304,265.657933 L381.758543,266.56531 L379.827783,263.442304 C366.989935,242.677067 341.515926,229.288889 313.143915,229.288889 C303.987953,229.288889 295.06479,230.67122 286.683555,233.334989 L282.187179,234.764051 L280.499796,230.358107 C267.870476,197.381566 233.422984,174.726984 194.123603,174.726984 C143.549467,174.726984 102.731383,211.875702 102.731383,257.453968 C102.731383,257.784917 102.733528,258.115624 102.737815,258.446079 L102.803995,263.547598 L97.7021799,263.510807 C97.5177837,263.509477 97.3333035,263.508812 97.1487414,263.508812 C55.6464855,263.508812 22,297.192808 22,338.746907 C22,380.301006 55.6464855,413.985002 97.1487414,413.985002 C97.9450937,413.985002 98.739902,413.972618 99.5329896,413.947901 Z" id="Cloud" stroke="#FFFFFF" stroke-width="10" fill="#CCCCCC"></path>
    </g>
</svg>