<?xml version="1.0" encoding="UTF-8"?>
<svg width="500px" height="500px" viewBox="0 0 500 500" version="1.1" xmlns="http://www.w3.org/2000/svg" xmlns:xlink="http://www.w3.org/1999/xlink">
    <!-- Generator: Sketch 50.2 (55047) - http://www.bohemiancoding.com/sketch -->
    <title>partly-sunny-with-rain</title>
    <desc>Created with Sketch.</desc>
    <defs>
        <radialGradient cx="51.7490208%" cy="50%" fx="51.7490208%" fy="50%" r="100%" id="radialGradient-1">
            <stop stop-color="#FFEB00" offset="0%"></stop>
            <stop stop-color="#F8E71C" offset="100%"></stop>
        </radialGradient>
    </defs>
    <g id="partly-sunny-with-rain" stroke="none" stroke-width="1" fill="none" fill-rule="evenodd">
        <g id="Cloud-+-Handle-+-Umbrella-+-Drops-2" transform="translate(50.000000, 0.000000)">
            <circle id="Sun" fill="url(#radialGradient-1)" cx="349.399994" cy="80.5" r="79.5"></circle>
            <g id="rain">
                <path d="M68.3267981,197.709616 L68.804565,197.685229 L69.2782883,197.751879 C69.5110718,197.78463 69.7481564,197.801249 69.9889507,197.801249 L311.687462,197.801249 C312.000393,197.801249 312.30721,197.773057 312.606515,197.717724 L313.104915,197.625583 L313.611667,197.635334 C314.005054,197.642904 314.398951,197.646694 314.793324,197.646694 C348.043305,197.646694 375,170.659946 375,137.367322 C375,104.074697 348.043305,77.0879496 314.793324,77.0879496 C309.709547,77.0879496 304.712906,77.7177079 299.881756,78.9498525 L296.323994,79.8572298 L294.393235,76.7342237 C284.123364,60.1226934 263.701959,49.389973 240.934045,49.389973 C233.580773,49.389973 226.416383,50.4998442 219.68901,52.6379733 L215.192635,54.0670351 L213.505251,49.661091 C203.371362,23.2003938 175.696699,5 144.102593,5 C103.453192,5 70.6806966,34.826393 70.6806966,71.3721135 C70.6806966,71.6373327 70.6824156,71.9023558 70.685851,72.1671748 L70.7520308,77.268693 L65.650216,77.2319021 C65.5024372,77.2308365 65.3545901,77.2303034 65.2066764,77.2303034 C31.9566951,77.2303034 5,104.217051 5,137.509675 C5,170.8023 31.9566951,197.789048 65.2066764,197.789048 C66.2503115,197.789048 67.2905587,197.762509 68.3267981,197.709616 Z" id="Cloud" stroke="#FFFFFF" stroke-width="10" fill="#CCCCCC"></path>
                <g id="Drops" transform="translate(66.000000, 213.000000)" fill="#4580CB">
                    <g id="Rain-Drop---Large" transform="translate(0.000000, 20.000000)">
                        <rect id="rain-drop" x="0" y="0" width="35" height="65" rx="17.5"></rect>
                    </g>
                    <g id="Rain-Drop---Large" transform="translate(108.000000, 0.000000)">
                        <rect id="rain-drop" x="0" y="0" width="35" height="65" rx="17.5"></rect>
                    </g>
                    <g id="Rain-Drop---Large" transform="translate(217.000000, 20.000000)">
                        <rect id="rain-drop" x="0" y="0" width="35" height="65" rx="17.5"></rect>
                    </g>
                </g>
            </g>
        </g>
        <g id="umbrella" transform="translate(137.000000, 330.000000)" stroke="#404040">
            <path d="M122,50 C122,50 121.999999,118.079269 121.999999,140.319686 C121.999999,162.560104 79,162.560104 79,140.319691 C79,118.079279 79,127.983583 79,127.983583" id="Handle" stroke-width="23"></path>
            <path d="M219.952167,75.1535156 C219.952054,75.1539229 219.951942,75.1543304 219.95183,75.1547378 C219.952081,75.1538247 219.952463,75.1522054 219.952959,75.1498849 Z M219.406709,67.3277588 C217.190545,56.0010878 208.59438,42.4769765 195.072141,31.5206439 C175.228822,15.4426852 147.051658,6 111.914563,6 C76.8236673,6 49.1428154,15.4076556 29.8979425,31.4657143 C17.093611,42.1497395 8.95176352,55.3323815 6.66321588,66.6370506 C11.3521594,64.2199265 17.009992,63.0373298 23.1399349,63.0373298 C32.1901904,63.0373298 40.3108942,68.8415306 47.6409427,78.3914529 C50.4111796,82.0006443 53.0096386,86.1292221 55.1529622,90.0969672 C61.7775593,81.5848889 72.1047392,76.830749 84.2504809,76.830749 C95.6433055,76.830749 105.714326,81.9614618 112.488934,90.471493 C119.638624,82.0699374 130.565179,76.830749 142.093567,76.830749 C153.225361,76.830749 163.331815,82.4574625 170.797824,91.4674856 C172.35226,88.5599183 173.830344,85.9730662 175.390324,83.4877269 C183.431766,70.6762045 192.009449,63.0373298 202.636545,63.0373298 C208.352168,63.0373298 214.388924,64.6426243 219.406709,67.3277588 Z" id="Umbrella" stroke-width="12" fill="#F5E000"></path>
        </g>
    </g>
</svg>