<?xml version="1.0" encoding="UTF-8"?>
<svg width="500px" height="500px" viewBox="0 0 500 500" version="1.1" xmlns="http://www.w3.org/2000/svg" xmlns:xlink="http://www.w3.org/1999/xlink">
    <!-- Generator: Sketch 50.2 (55047) - http://www.bohemiancoding.com/sketch -->
    <title>partly-cloudy-day</title>
    <desc>Created with Sketch.</desc>
    <defs>
        <radialGradient cx="51.7490208%" cy="50%" fx="51.7490208%" fy="50%" r="100%" id="radialGradient-1">
            <stop stop-color="#FFEB00" offset="0%"></stop>
            <stop stop-color="#F8E71C" offset="100%"></stop>
        </radialGradient>
    </defs>
    <g id="partly-cloudy-day" stroke="none" stroke-width="1" fill="none" fill-rule="evenodd">
        <g id="Sun-+-Cloud" transform="translate(0.000000, 70.000000)">
            <circle id="Sun" fill="url(#radialGradient-1)" cx="297.42268" cy="179.896907" r="179.896907"></circle>
            <path d="M87.7190973,354.751452 L88.0155419,354.743943 L88.3107959,354.771527 C88.469293,354.786335 88.6296807,354.793814 88.7917942,354.793814 L412.460889,354.793814 C412.812084,354.793814 413.155654,354.758372 413.489553,354.688959 L413.962136,354.590715 L414.444786,354.584688 C458.543556,354.033936 494.051064,318.114772 494.051064,273.97543 C494.051064,229.452877 457.949612,193.359749 413.415639,193.359749 C406.607772,193.359749 399.915153,194.202129 393.443712,195.850398 L389.889102,196.755753 L387.958333,193.63693 C374.178149,171.377419 346.848133,157.033096 316.416819,157.033096 C306.598248,157.033096 297.028631,158.513581 288.039557,161.366696 L283.546398,162.792816 L281.858451,158.391324 C268.313704,123.072033 231.379102,98.814433 189.248822,98.814433 C135.029019,98.814433 91.2579513,138.597138 91.2579513,187.420911 C91.2579513,187.775459 91.2602524,188.12975 91.2648512,188.483773 L91.3311205,193.585329 L86.2292657,193.548588 C86.0314077,193.547163 85.8334597,193.54645 85.6354243,193.54645 C41.1014511,193.54645 5,229.639578 5,274.162131 C5,318.684684 41.1014511,354.777812 85.6354243,354.777812 C86.3311066,354.777812 87.0256984,354.769015 87.7190973,354.751452 Z" id="Cloud" stroke="#FFFFFF" stroke-width="10" fill="#CCCCCC"></path>
        </g>
    </g>
</svg>