<?xml version="1.0" encoding="UTF-8"?>
<svg width="500px" height="500px" viewBox="0 0 500 500" version="1.1" xmlns="http://www.w3.org/2000/svg" xmlns:xlink="http://www.w3.org/1999/xlink">
    <!-- Generator: Sketch 50.2 (55047) - http://www.bohemiancoding.com/sketch -->
    <title>thunderstorm</title>
    <desc>Created with Sketch.</desc>
    <defs></defs>
    <g id="thunderstorm" stroke="none" stroke-width="1" fill="none" fill-rule="evenodd">
        <g id="rain" transform="translate(15.000000, 0.000000)">
            <path d="M93.2037958,143.694044 C93.2037958,143.694044 32.7936012,273.94863 34.1494472,277.673786 C35.4449253,281.233083 126.739174,235.831737 128.09502,239.556893 C130.26158,245.50947 97.055008,337.657769 93.6567703,348.422343 C90.2585326,359.186917 91.8922404,354.372997 91.8922404,354.372997 L97.8484627,335.733217" id="lightning-left" stroke="#EDDE0C" stroke-width="30" transform="translate(81.161731, 249.570045) rotate(20.000000) translate(-81.161731, -249.570045) "></path>
            <path d="M113.326798,197.709616 L113.804565,197.685229 L114.278288,197.751879 C114.511072,197.78463 114.748156,197.801249 114.988951,197.801249 L356.687462,197.801249 C357.000393,197.801249 357.30721,197.773057 357.606515,197.717724 L358.104915,197.625583 L358.611667,197.635334 C359.005054,197.642904 359.398951,197.646694 359.793324,197.646694 C393.043305,197.646694 420,170.659946 420,137.367322 C420,104.074697 393.043305,77.0879496 359.793324,77.0879496 C354.709547,77.0879496 349.712906,77.7177079 344.881756,78.9498525 L341.323994,79.8572298 L339.393235,76.7342237 C329.123364,60.1226934 308.701959,49.389973 285.934045,49.389973 C278.580773,49.389973 271.416383,50.4998442 264.68901,52.6379733 L260.192635,54.0670351 L258.505251,49.661091 C248.371362,23.2003938 220.696699,5 189.102593,5 C148.453192,5 115.680697,34.826393 115.680697,71.3721135 C115.680697,71.6373327 115.682416,71.9023558 115.685851,72.1671748 L115.752031,77.268693 L110.650216,77.2319021 C110.502437,77.2308365 110.35459,77.2303034 110.206676,77.2303034 C76.9566951,77.2303034 50,104.217051 50,137.509675 C50,170.8023 76.9566951,197.789048 110.206676,197.789048 C111.250311,197.789048 112.290559,197.762509 113.326798,197.709616 Z" id="Cloud" stroke="#FFFFFF" stroke-width="10" fill="#CCCCCC"></path>
            <g id="Drops" transform="translate(208.000000, 208.000000)" fill="#4580CB">
                <g id="Rain-Drop---Large" transform="translate(70.000000, 30.000000)">
                    <rect id="rain-drop" x="0" y="0" width="35" height="65" rx="17.5"></rect>
                </g>
                <g id="Rain-Drop---Large">
                    <rect id="rain-drop" x="0" y="0" width="35" height="65" rx="17.5"></rect>
                </g>
                <g id="Rain-Drop---Large" transform="translate(140.000000, 0.000000)">
                    <rect id="rain-drop" x="0" y="0" width="35" height="65" rx="17.5"></rect>
                </g>
            </g>
        </g>
        <g id="umbrella" transform="translate(137.000000, 330.000000)" stroke="#404040">
            <path d="M122,50 C122,50 121.999999,118.079269 121.999999,140.319686 C121.999999,162.560104 79,162.560104 79,140.319691 C79,118.079279 79,127.983583 79,127.983583" id="Handle" stroke-width="23"></path>
            <path d="M219.952167,75.1535156 C219.952054,75.1539229 219.951942,75.1543304 219.95183,75.1547378 C219.952081,75.1538247 219.952463,75.1522054 219.952959,75.1498849 Z M219.406709,67.3277588 C217.190545,56.0010878 208.59438,42.4769765 195.072141,31.5206439 C175.228822,15.4426852 147.051658,6 111.914563,6 C76.8236673,6 49.1428154,15.4076556 29.8979425,31.4657143 C17.093611,42.1497395 8.95176352,55.3323815 6.66321588,66.6370506 C11.3521594,64.2199265 17.009992,63.0373298 23.1399349,63.0373298 C32.1901904,63.0373298 40.3108942,68.8415306 47.6409427,78.3914529 C50.4111796,82.0006443 53.0096386,86.1292221 55.1529622,90.0969672 C61.7775593,81.5848889 72.1047392,76.830749 84.2504809,76.830749 C95.6433055,76.830749 105.714326,81.9614618 112.488934,90.471493 C119.638624,82.0699374 130.565179,76.830749 142.093567,76.830749 C153.225361,76.830749 163.331815,82.4574625 170.797824,91.4674856 C172.35226,88.5599183 173.830344,85.9730662 175.390324,83.4877269 C183.431766,70.6762045 192.009449,63.0373298 202.636545,63.0373298 C208.352168,63.0373298 214.388924,64.6426243 219.406709,67.3277588 Z" id="Umbrella" stroke-width="12" fill="#F5E000"></path>
        </g>
    </g>
</svg>