<?xml version="1.0" encoding="UTF-8"?>
<svg width="500px" height="500px" viewBox="0 0 500 500" version="1.1" xmlns="http://www.w3.org/2000/svg" xmlns:xlink="http://www.w3.org/1999/xlink">
    <!-- Generator: Sketch 50.2 (55047) - http://www.bohemiancoding.com/sketch -->
    <title>wind</title>
    <desc>Created with Sketch.</desc>
    <defs></defs>
    <g id="wind" stroke="none" stroke-width="1" fill="none" fill-rule="evenodd">
        <path d="M332.868156,340 L13,340 L13,380 L419,380 L419,379.993003 C457.198929,379.45812 488,348.326048 488,310 C488,271.340068 456.659932,240 418,240 C382.735281,240 353.561185,266.077059 348.708889,300 L389.707057,300 C393.825421,288.348076 404.937812,280 418,280 C434.568542,280 448,293.431458 448,310 C448,326.233899 435.105627,339.456157 419.000005,339.983647 L419,340 L332.868156,340 L332.868156,340 Z" id="Rectangle-131-Copy-5" fill="#999999"></path>
        <path d="M155.996338,260 L13,260 L13,300 L253,300 L253,299.980399 C307.305316,298.915074 351,254.560257 351,200 C351,144.771525 306.228475,100 251,100 C195.771525,100 151,144.771525 151,200 L191,200 C191,166.862915 217.862915,140 251,140 C284.137085,140 311,166.862915 311,200 C311,233.137085 284.137085,260 251,260 C250.330714,260 249.663987,259.989042 248.999989,259.967294 L249,260 L155.996338,260 L155.996338,260 Z" id="Rectangle-131-Copy-8" fill="#999999"></path>
    </g>
</svg>