<?xml version="1.0" encoding="UTF-8"?>
<svg width="500px" height="500px" viewBox="0 0 500 500" version="1.1" xmlns="http://www.w3.org/2000/svg" xmlns:xlink="http://www.w3.org/1999/xlink">
    <!-- Generator: Sketch 50.2 (55047) - http://www.bohemiancoding.com/sketch -->
    <title>wind</title>
    <desc>Created with Sketch.</desc>
    <defs></defs>
    <g id="wind" stroke="none" stroke-width="1" fill="none" fill-rule="evenodd">
        <path d="M330.868156,340 L11,340 L11,380 L417,380 L417,379.993003 C455.198929,379.45812 486,348.326048 486,310 C486,271.340068 454.659932,240 416,240 C380.735281,240 351.561185,266.077059 346.708889,300 L387.707057,300 C391.825421,288.348076 402.937812,280 416,280 C432.568542,280 446,293.431458 446,310 C446,326.233899 433.105627,339.456157 417.000005,339.983647 L417,340 L330.868156,340 L330.868156,340 Z" id="Rectangle-131-Copy-5" fill="#999999"></path>
        <path d="M153.996338,260 L11,260 L11,300 L251,300 L251,299.980399 C305.305316,298.915074 349,254.560257 349,200 C349,144.771525 304.228475,100 249,100 C193.771525,100 149,144.771525 149,200 L189,200 C189,166.862915 215.862915,140 249,140 C282.137085,140 309,166.862915 309,200 C309,233.137085 282.137085,260 249,260 C248.330714,260 247.663987,259.989042 246.999989,259.967294 L247,260 L153.996338,260 L153.996338,260 Z" id="Rectangle-131-Copy-8" fill="#999999"></path>
    </g>
</svg>