<?xml version="1.0" encoding="UTF-8" standalone="no"?>
<svg width="117px" height="70px" viewBox="0 0 117 70" version="1.1" xmlns="http://www.w3.org/2000/svg" xmlns:xlink="http://www.w3.org/1999/xlink" xmlns:sketch="http://www.bohemiancoding.com/sketch/ns">
    <!-- Generator: Sketch 3.2.2 (9983) - http://www.bohemiancoding.com/sketch -->
    <title>New Yorker Logo</title>
    <desc>Created with Sketch.</desc>
    <defs></defs>
    <g id="Start-Page---Initial-State" stroke="none" stroke-width="1" fill="none" fill-rule="evenodd" sketch:type="MSPage">
        <g id="Breach" sketch:type="MSArtboardGroup" transform="translate(-393.000000, -406.000000)" fill="#231F20">
            <g id="Cards" sketch:type="MSLayerGroup" transform="translate(380.000000, 156.000000)">
                <g id="New-Yorker-Card" transform="translate(0.000000, 244.000000)" sketch:type="MSShapeGroup">
                    <g id="New-Yorker-Logo" transform="translate(15.000000, 9.000000)">
                        <g id="Yorker" transform="translate(0.000000, 34.000000)">
                            <path d="M80.1671759,0.689970149 L90.3407006,0.689970149 L91.6502963,3.69850746 C91.6502963,3.69850746 90.2129352,2.11797015 87.022034,2.11797015 L83.6746605,2.11797015 L83.6746605,11.2714627 L87.7364691,11.2714627 C89.213858,11.2714627 89.6707407,11.1339701 90.2384074,10.5480597 L90.2384074,13.6259701 C90.2384074,13.6259701 89.8227654,12.7253731 87.7364691,12.7253731 L83.6746605,12.7253731 L83.6746605,24.9124776 L86.1296975,24.9124776 C90.5549907,24.9124776 92.2660772,23.5354627 92.2660772,23.5354627 L90.0245216,26.6672836 L80.1214877,26.670209 L80.1671759,0.689970149 L80.1671759,0.689970149 Z" id="Shape"></path>
                            <path d="M29.3019784,-0.199761194 C37.9556605,-0.199761194 43.2138549,6.10525373 43.2138549,13.1127761 C43.2138549,22.1588657 38.4642963,27.8466269 29.5057562,27.8466269 C20.5460031,27.8466269 15.2004753,20.8482985 15.2004753,13.902209 C15.2004753,6.06220896 20.8516698,-0.199761194 29.3019784,-0.199761194 L29.3019784,-0.199761194 Z M18.9169938,13.323403 C18.9169938,19.4052537 22.23,26.0575522 29.7600741,26.0575522 C36.7172253,26.0575522 39.4839938,20.1629254 39.4839938,13.4809552 C39.4839938,8.12167164 35.9712531,1.32644776 29.1487407,1.32644776 C24.368858,1.32644776 18.9169938,5.22471642 18.9169938,13.323403 L18.9169938,13.323403 Z" id="Shape"></path>
                            <path d="M46.1924877,0.689970149 L52.0887006,0.689970149 C55.1906512,0.689970149 57.7827531,2.54883582 57.7827531,5.98364179 C57.7827531,10.033194 54.8971142,11.0846567 52.9309012,11.7299104 C56.5042901,12.3459104 57.816716,14.1153433 57.816716,19.0780299 C57.816716,24.0306866 59.0349352,25.8690746 60.133071,25.8690746 C60.9789105,25.8690746 61.6391667,25.2927761 61.8748858,24.8953433 L62.3653272,25.242209 C62.2213889,25.4749851 61.2295895,27.0881194 58.9285988,27.0881194 C56.6373117,27.0881194 54.8853889,24.8945075 54.8853889,19.74 C54.8853889,12.287403 52.9361574,12.1478209 51.3811389,12.1478209 L51.3811389,11.5907463 C51.4280401,11.5794627 54.716787,10.8518806 54.716787,6.68029851 C54.716787,2.7360597 52.4255,2.11797015 51.4822191,2.11797015 L49.7974136,2.11797015 L49.7974136,26.670209 L46.1455864,26.670209 L46.1924877,0.689970149 L46.1924877,0.689970149 Z" id="Shape"></path>
                            <path d="M93.9173241,0.689970149 L99.8139414,0.689970149 C102.916296,0.689970149 105.507994,2.54883582 105.507994,5.98364179 C105.507994,10.033194 102.621951,11.0846567 100.656142,11.7299104 C104.229531,12.3459104 105.541552,14.1153433 105.541552,19.0780299 C105.541552,24.0306866 106.760176,25.8690746 107.858716,25.8690746 C108.704556,25.8690746 109.364407,25.2927761 109.600127,24.8953433 L110.090164,25.242209 C109.947034,25.4749851 108.95483,27.0881194 106.653435,27.0881194 C104.362552,27.0881194 102.610225,24.8945075 102.610225,19.74 C102.610225,12.287403 100.661398,12.1478209 99.1063796,12.1478209 L99.1063796,11.5907463 C99.1532809,11.5794627 102.442028,10.8518806 102.442028,6.68029851 C102.442028,2.7360597 100.150741,2.11797015 99.2074599,2.11797015 L97.5226543,2.11797015 L97.5226543,26.670209 L93.8708272,26.670209 L93.9173241,0.689970149 L93.9173241,0.689970149 Z" id="Shape"></path>
                            <path d="M74.2115278,19.0780299 C74.2115278,24.0302687 75.4297469,25.8690746 76.5278827,25.8690746 C77.3733179,25.8690746 78.0335741,25.2919403 78.2684846,24.8953433 L78.7601389,25.242209 C78.615392,25.4745672 77.6231883,27.0877015 75.3234105,27.0877015 C73.0317191,27.0877015 71.2802006,24.8940896 71.2802006,19.7395821 L71.2802006,18.6952239 C71.2802006,15.6227463 71.1350494,13.2264478 70.6191358,11.6567761 C70.2204753,10.4427463 68.7750278,9.5358806 68.1547994,9.5358806 L67.379716,9.53629851 L67.379716,26.670209 L63.7278889,26.670209 L63.7747901,0.689970149 L67.379716,0.689970149 L67.379716,8.3519403 L73.9838951,0.689970149 L76.3422994,0.689970149 L69.4061728,8.73725373 C72.9795617,9.35283582 74.2115278,12.1064478 74.2115278,18.0683582 L74.2115278,19.0780299 L74.2115278,19.0780299 Z" id="Shape"></path>
                            <path d="M10.0186975,26.670209 L10.0186975,13.258209 L17.0211327,0.689970149 L14.7577438,0.689970149 L8.10868519,12.6246567 L1.45922222,0.689970149 L-0.803762346,0.689970149 L6.19867284,13.258209 L6.19867284,26.670209 L10.0186975,26.670209 Z" id="Shape"></path>
                        </g>
                        <g id="New">
                            <path d="M19.1323502,0.560165245 L22.3252968,0.560165245 L22.3252968,9.86780917 L30.4236084,9.86780917 L30.4236084,0.560165245 L32.8299129,0.541039446 L32.8299129,23.4283689 L30.4236084,23.4283689 L30.4236084,11.1330544 L22.3252968,11.1330544 L22.3252968,23.4283689 L19.1323502,23.4283689 L19.1323502,0.560165245 Z" id="Shape"></path>
                            <path d="M54.3350327,0.607244136 L57.0320915,0.607244136 L68.3782898,15.4727719 L68.3782898,0.607244136 L70.1074755,0.607244136 L70.1074755,23.7730011 L56.076348,5.10916311 L56.076348,23.4721375 L54.2907952,23.4725053 L54.3350327,0.607244136 Z" id="Shape"></path>
                            <path d="M73.1127696,0.607244136 L81.2039461,0.607244136 L82.3598284,3.25506397 C82.3598284,3.25506397 81.0038072,1.86439765 78.4640768,1.86439765 L76.5030011,1.86439765 L76.5030011,9.92003731 L79.791201,9.92003731 C81.4618791,9.92003731 81.709823,9.75158316 82.3598284,9.08181237 L82.3598284,12.4795842 C82.3598284,12.4795842 81.6320507,11.3320362 79.791201,11.3320362 L76.5030011,11.3320362 L76.5030011,21.9255224 L81.0755147,21.9255224 C85.5063971,21.9255224 87.7682162,20.0272868 87.7682162,20.0272868 L86.1417756,23.4699307 L73.0720997,23.4725053 L73.1127696,0.607244136 L73.1127696,0.607244136 Z" id="Shape"></path>
                            <path d="M35.8723094,0.590692964 L44.8489488,0.590692964 L46.0044744,3.23851279 C46.0044744,3.23851279 44.7362146,1.84747868 41.9207135,1.84747868 L38.9671487,1.84747868 L38.9671487,9.90348614 L42.5510975,9.90348614 C43.8546759,9.90348614 44.2578077,9.78247868 44.7586901,9.2668177 L44.7586901,11.975693 C44.7586901,11.975693 44.3919472,11.1830757 42.5510975,11.1830757 L38.9671487,11.1830757 L38.9671487,21.9089712 L41.1333578,21.9089712 C45.0380283,21.9089712 46.5478105,20.6970576 46.5478105,20.6970576 L44.5699673,23.4533795 L35.8319962,23.4559542 L35.8723094,0.590692964 L35.8723094,0.590692964 Z" id="Shape"></path>
                            <path d="M15.9864951,0.607244136 L10.1535703,0.607244136 L1.25862745,0.607244136 L0.0449509804,3.43823028 C0.0449509804,3.43823028 1.37635621,2.04719616 4.33277505,2.04719616 C6.30383987,2.04719616 6.34129902,2.04719616 6.98666667,2.04572495 L6.99237473,23.4246908 L10.1475054,23.4276333 L10.1532135,2.04719616 L12.9127042,2.04719616 C15.8691231,2.04719616 17.2008851,3.43823028 17.2008851,3.43823028 L15.9864951,0.607244136 L15.9864951,0.607244136 Z" id="Shape"></path>
                            <path d="M83.3576688,0.607244136 L86.7767974,0.607244136 L94.1494717,17.3732143 L95.6956427,13.8481823 L90.0468028,0.607244136 L93.317165,0.607244136 L97.4198339,9.55738273 L101.344126,0.607244136 L103.009096,0.607244136 L98.341329,11.9786354 L100.719807,17.3732143 L107.884493,0.607244136 L109.87625,0.607244136 L100.006299,23.6564072 L96.5875272,16.1778518 L93.2575871,23.686935 L83.3576688,0.607244136 Z" id="Shape"></path>
                        </g>
                    </g>
                </g>
            </g>
        </g>
    </g>
</svg>