<?xml version="1.0" encoding="UTF-8"?>
<svg width="500px" height="500px" viewBox="0 0 500 500" version="1.1" xmlns="http://www.w3.org/2000/svg" xmlns:xlink="http://www.w3.org/1999/xlink">
    <!-- Generator: Sketch 50.2 (55047) - http://www.bohemiancoding.com/sketch -->
    <title>geolocation</title>
    <desc>Created with Sketch.</desc>
    <defs></defs>
    <g id="geolocation" stroke="none" stroke-width="1" fill="none" fill-rule="evenodd">
        <path d="M260.5,467.5 L260.5,473.961342 C259.545392,475.022248 258.705543,476.188472 258,477.440468 C257.294457,476.188472 256.454608,475.022248 255.5,473.961342 L255.5,467.5 L260.5,467.5 Z M256.929156,419.27515 L281.861352,414.4796 C351.021585,401.177066 404.892916,345.317056 415.563048,275.584243 L419.411517,250.433229 L415.688987,225.252991 C404.990428,152.884928 347.879332,95.499149 275.584243,84.4369525 L250.433229,80.5884827 L225.252991,84.3110125 C152.583503,95.0541338 95.0541338,152.583503 84.3110125,225.252991 L80.5884827,250.433229 L84.4369525,275.584243 C95.8441225,350.133847 156.391483,408.274716 231.534924,416.496614 L256.929156,419.27515 Z M467.5,248 L473.961342,248 C475.022248,248.954608 476.188472,249.794457 477.440468,250.5 C476.188472,251.205543 475.022248,252.045392 473.961342,253 L467.5,253 L467.5,248 Z M248,31.5 L248,25.0386582 C248.954608,23.9777522 249.794457,22.8115279 250.5,21.5595325 C251.205543,22.8115279 252.045392,23.9777522 253,25.0386582 L253,31.5 L248,31.5 Z M32.5,253 L26.0386582,253 C24.9777522,252.045392 23.8115279,251.205543 22.5595325,250.5 C23.8115279,249.794457 24.9777522,248.954608 26.0386582,248 L32.5,248 L32.5,253 Z" id="Combined-Shape" stroke="#4A4A4A" stroke-width="65"></path>
        <g id="crosshairs" transform="translate(220.000000, 390.000000)"></g>
        <circle id="inner-circle" stroke="#4A4A4A" stroke-width="50" cx="250.5" cy="250.5" r="62.5"></circle>
    </g>
</svg>