<?xml version="1.0" encoding="UTF-8"?>
<svg width="500px" height="500px" viewBox="0 0 500 500" version="1.1" xmlns="http://www.w3.org/2000/svg" xmlns:xlink="http://www.w3.org/1999/xlink">
    <!-- Generator: Sketch 50.2 (55047) - http://www.bohemiancoding.com/sketch -->
    <title>refresh-two-arrow</title>
    <desc>Created with Sketch.</desc>
    <defs></defs>
    <g id="refresh-two-arrow" stroke="none" stroke-width="1" fill="none" fill-rule="evenodd">
        <path d="M180.003389,62.5908875 L170.694523,27.8497254 L263.188144,75.5354668 L206.929189,163.079341 L196.292912,123.384215 C147.041046,144.301832 112.5,193.117169 112.5,250 C112.5,312.026495 153.570271,364.460514 210,381.591245 L210,445.999275 C118.710387,427.468462 50,346.758316 50,250 C50,164.168191 104.068251,90.9646983 180.003389,62.5908875 Z M318.110723,438.102934 L328.305477,476.150275 L235.811856,428.464533 L292.070811,340.920659 L301.843074,377.39124 C352.085232,356.923975 387.5,307.597769 387.5,250 C387.5,187.973505 346.429729,135.539486 290,118.408755 L290,54.0007246 C381.289613,72.531538 450,153.241684 450,250 C450,336.540689 395.034968,410.243607 318.110723,438.102934 Z" id="Oval-5" fill="#404040"></path>
    </g>
</svg>