<?xml version="1.0" encoding="UTF-8"?>
<svg width="500px" height="500px" viewBox="0 0 500 500" version="1.1" xmlns="http://www.w3.org/2000/svg" xmlns:xlink="http://www.w3.org/1999/xlink">
    <!-- Generator: Sketch 50.2 (55047) - http://www.bohemiancoding.com/sketch -->
    <title>settings-gear</title>
    <desc>Created with Sketch.</desc>
    <defs></defs>
    <g id="settings-gear" stroke="none" stroke-width="1" fill="none" fill-rule="evenodd">
        <path d="M85.2924405,96.3317034 C116.480921,105.436525 141.468973,104.57058 160.256594,93.7338666 C179.044215,82.8971537 192.267662,61.722681 199.926935,30.2104484 C216.029875,26.550822 232.789272,24.6184455 250,24.6184455 C267.424135,24.6184455 284.385676,26.5990406 300.671773,30.3473786 C307.789067,61.4548046 320.98401,82.5836339 340.256601,93.7338666 C359.529192,104.884099 384.340474,105.743919 414.690447,96.3133259 C437.658909,120.976607 455.153642,150.805496 465.240385,183.865734 C441.917865,205.783304 430.256605,227.700875 430.256605,249.618446 C430.256605,271.536016 441.917865,293.453587 465.240385,315.371157 C455.153642,348.431395 437.658909,378.260284 414.690447,402.923565 C383.801516,393.804788 358.990234,394.664608 340.256601,405.503024 C321.522968,416.341441 308.328025,437.47027 300.671773,468.889512 C284.385676,472.63785 267.424135,474.618446 250,474.618446 C232.789272,474.618446 216.029875,472.686069 199.926935,469.026443 C192.903918,437.881203 179.680471,416.70673 160.256594,405.503024 C140.832717,394.299319 115.844666,393.433373 85.2924405,402.905188 C62.474153,378.397712 45.0600053,348.791225 34.9472375,315.982964 C58.4868024,293.861477 70.2565867,271.739971 70.2565904,249.618446 C70.2565941,227.49692 58.4868172,205.37539 34.9472597,183.253855 C45.0600053,149.445666 62.474153,120.839179 85.2924405,96.3317034 Z M249.947237,324.618446 C291.368594,324.618446 324.947237,291.039802 324.947237,249.618446 C324.947237,208.197089 291.368594,174.618446 249.947237,174.618446 C208.525881,174.618446 174.947237,208.197089 174.947237,249.618446 C174.947237,291.039802 208.525881,324.618446 249.947237,324.618446 Z" id="gear" fill="#404040"></path>
    </g>
</svg>