<?xml version="1.0" encoding="utf-8"?>
<!-- From Quartz qz.com -->
<svg version="1.1" xmlns="http://www.w3.org/2000/svg" xmlns:xlink="http://www.w3.org/1999/xlink" preserveAspectRatio="xMinYMin meet" x="0px" y="0px" width="608px" height="100px" viewBox="0 0 608 100" overflow="visible" enable-background="new 0 0 608 100" xml:space="preserve">
	<path fill="#FFFFFF" d="M86.542,75.602c5.541-7.523,8.83-16.818,8.83-26.881c0-25.042-20.396-45.436-45.436-45.436
		C24.877,3.284,4.5,23.679,4.5,48.72c0,25.059,20.377,45.436,45.436,45.436c9.847,0,18.982-3.146,26.435-8.509l11.386,11.387
		l10.118-10.1L86.542,75.602z M76.265,65.325L59.476,48.537L49.377,58.653l16.699,16.698c-4.72,2.861-10.243,4.505-16.14,4.505
		c-17.179,0-31.137-13.962-31.137-31.136c0-17.161,13.958-31.136,31.137-31.136c17.158,0,31.136,13.976,31.136,31.136
		C81.072,54.815,79.302,60.515,76.265,65.325z"></path>
	<polygon fill="#FFFFFF" points="505.438,5.536 505.438,19.979 478.421,19.979 478.421,92.215 463.787,92.215 463.787,19.979
		436.771,19.979 436.771,5.536 "></polygon>
	<path fill="#FFFFFF" d="M279.555,5.536h-17.57l-33.406,86.679h15.335l6.257-16.886h41.199l6.257,16.886h15.335L279.555,5.536z
		 M255.748,61.82l15.03-39.126l15.015,39.126H255.748z"></path>
	<polygon fill="#FFFFFF" points="604.5,19.979 556.044,77.581 604.5,77.581 604.5,92.215 536.958,92.215 536.958,76.817
		585.588,19.979 540.335,19.979 540.335,5.679 604.5,5.679 "></polygon>
	<path fill="#FFFFFF" d="M200.247,5.536v54.837c0,18.59-15.104,33.711-33.691,33.711c-18.591,0-33.712-15.121-33.712-33.711V5.536
		h14.621v54.837c-0.322,10.706,8.383,19.412,19.091,19.412c10.688,0,19.393-8.706,19.183-19.412V5.536H200.247z"></path>
	<path fill="#FFFFFF" d="M389.225,62.858c9.94-4.952,16.749-15.157,16.749-26.92c0-15.889-13.102-30.082-29.411-30.403h-32.1v86.679
		h14.634V66.11h13.258l30.17,30.565l10.171-10.046L389.225,62.858z M375.498,51.811h-16.401V20.066h16.401
		c8.92,0,16.177,7.116,16.177,15.872C391.675,44.698,384.418,51.811,375.498,51.811z"></path>
</svg>
